<?xml version="1.0"?>
<svg width="500" height="500" xmlns="http://www.w3.org/2000/svg" xmlns:svg="http://www.w3.org/2000/svg">
 <g class="layer">
  <title>Layer 1</title>
  <path d="m395.25,1l-290.5,0c-57.27,0 -103.75,46.48 -103.75,103.75l0,290.5c0,57.27 46.48,103.75 103.75,103.75l290.5,0c57.27,0 103.75,-46.48 103.75,-103.75l0,-290.5c0,-57.27 -46.48,-103.75 -103.75,-103.75zm-92.75,406.49c-8.3,1.66 -11,-3.53 -11,-7.89l0,-45.65c0,-15.56 -5.4,-25.52 -11.41,-30.71c36.94,-4.15 75.74,-18.26 75.74,-81.96c0,-18.05 -6.43,-32.99 -17.02,-44.41c1.66,-4.36 7.47,-21.17 -1.66,-43.99c0,0 -13.9,-4.57 -45.65,17.02c-13.28,-3.74 -27.39,-5.6 -41.5,-5.6c-14.11,0 -28.22,1.87 -41.5,5.6c-31.75,-21.58 -45.65,-17.02 -45.65,-17.02c-9.13,22.83 -3.32,39.63 -1.66,43.78c-10.58,11.62 -17.02,26.56 -17.02,44.61c0,63.7 38.6,77.81 75.53,82.17c-4.77,4.15 -9.13,11.41 -10.58,22.2c-9.34,4.15 -33.41,11.41 -48.35,-13.9c0,0 -8.72,-15.98 -25.32,-17.22c0,0 -16.19,-0.21 -1.25,10.17c0,0 11,5.19 18.47,24.28c0,0 9.55,29.67 55.82,19.71l0,30.71c0,4.57 -2.7,9.55 -11,8.09c-65.99,-22 -113.5,-84.25 -113.5,-157.49c0,-91.72 74.29,-166 166,-166s166,74.29 166,166c0,73.25 -47.52,135.5 -113.5,157.49z" fill="#0a3871" id="svg_1"/>
 </g>
</svg>