<?xml version="1.0"?>
<svg width="500" height="500" xmlns="http://www.w3.org/2000/svg" xmlns:svg="http://www.w3.org/2000/svg">
 <g class="layer">
  <title>Layer 1</title>
  <path d="m317.66,115.15c-17.46,-0.83 -22.66,-1.04 -67.16,-1.04s-49.69,0.21 -67.16,1.04c-45.12,2.08 -66.12,23.49 -68.2,68.2c-0.83,17.46 -1.04,22.66 -1.04,67.16s0.21,49.69 1.04,67.16c2.08,44.7 22.87,66.12 68.2,68.2c17.46,0.83 22.66,1.04 67.16,1.04c44.49,0 49.69,-0.21 67.16,-1.04c45.12,-2.08 66.12,-23.49 68.2,-68.2c0.83,-17.46 1.04,-22.66 1.04,-67.16s-0.21,-49.69 -1.04,-67.16c-2.08,-44.7 -23.08,-66.12 -68.2,-68.2zm-67.16,220.81c-47.2,0 -85.45,-38.26 -85.45,-85.45c0,-47.2 38.26,-85.45 85.45,-85.45s85.45,38.26 85.45,85.45c0,47.2 -38.26,85.45 -85.45,85.45zm88.78,-154.27c-11.02,0 -19.96,-8.94 -19.96,-19.96s8.94,-19.96 19.96,-19.96s19.96,8.94 19.96,19.96s-8.94,19.96 -19.96,19.96zm-33.27,68.82c0,30.56 -24.95,55.51 -55.51,55.51s-55.51,-24.95 -55.51,-55.51c0,-30.56 24.95,-55.51 55.51,-55.51s55.51,24.95 55.51,55.51zm90.03,-249.5l-291.08,0c-57.38,0 -103.96,46.57 -103.96,103.96l0,291.08c0,57.38 46.57,103.96 103.96,103.96l291.08,0c57.38,0 103.96,-46.57 103.96,-103.96l0,-291.08c0,-57.38 -46.57,-103.96 -103.96,-103.96zm19.75,318.11c-2.7,60.5 -36.39,93.98 -96.68,96.68c-17.67,0.83 -23.49,1.04 -68.61,1.04s-50.73,-0.21 -68.61,-1.04c-60.5,-2.7 -93.98,-36.39 -96.68,-96.68c-0.83,-17.67 -1.04,-23.49 -1.04,-68.61c0,-45.12 0.21,-50.73 1.04,-68.61c2.7,-60.5 36.39,-93.98 96.68,-96.68c17.88,-0.83 23.49,-1.04 68.61,-1.04s50.94,0.21 68.61,1.04c60.5,2.7 93.98,36.39 96.68,96.68c0.83,17.67 1.04,23.49 1.04,68.61c0,45.12 -0.21,50.94 -1.04,68.61z" fill="#0a3871" id="svg_1"/>
  <line fill="none" id="svg_2" transform="rotate(-101.285 198 433.833)" x1="118" x2="278" y1="427.33" y2="440.33"/>
  <path d="m-126,321.33c0,2.01 0,2.82 0,4c0,0.6 0,1.52 0,2.16c0,1.36 0,2.1 0,2.88c0,0.82 0,2.13 0,2.58c0,0.93 0,1.88 0,2.35c0,0.94 0,2.3 0,3.18c0,0.89 0,1.34 0,2.3c0,1.05 0,2.2 0,2.82c0,0.64 0,1.29 0,2.64c0,0.69 0,2.09 0,2.79c0,0.7 0,1.4 0,2.8c0,0.7 0,1.4 0,2.1c0,1.4 0,2.1 0,2.8c0,1.39 0,2.08 0,2.77c0,0.68 0,1.35 0,2.67c0,1.28 0,1.91 0,2.54c0,1.25 0,1.88 0,2.51c0,1.28 0,2.6 0,3.26c0,0.67 0,1.33 0,1.99c0,1.29 0,2.53 0,3.12c0,1.13 0,1.67 0,2.72c0,0.51 0,2.02 0,3.02c0,0.5 0,1.52 0,2.03c0,1.05 0,2.13 0,3.25c0,0.57 0,1.13 0,2.26c0,0.55 -0.01,2.13 0,3.09c0,0.46 0,1.35 0.11,2.22c0.17,1.33 0.32,1.78 0.59,2.71c0.28,0.97 0.47,1.45 0.73,2.44c0.26,0.99 0.42,1.99 0.5,2.98c0.04,0.48 0.07,1.41 0.07,2.69c0,0.77 0,1.48 0,2.54c0,1.13 0,1.96 0,2.4c0.01,0.91 0.02,1.84 0.16,3.22c0.05,0.45 0.18,1.31 0.33,2.13c0.14,0.78 0.36,1.87 0.44,2.89c0.05,0.67 0.05,1.36 0.06,2.89c0,0.43 0,1.34 0.04,2.31c0.02,0.51 0.12,2.11 0.19,2.66c0.12,1.13 0.21,1.7 0.3,2.28c0.18,1.15 0.27,1.72 0.58,3.38c0.1,0.54 0.2,1.07 0.42,2.12c0.11,0.53 0.35,1.59 0.65,2.67c0.31,1.12 0.49,1.69 0.66,2.28c0.35,1.2 0.53,1.81 0.69,2.44c0.33,1.28 0.47,1.93 0.73,3.27c0.13,0.67 0.25,1.35 0.38,2.02c0.13,0.67 0.22,1.35 0.7,3.3c0.15,0.64 0.33,1.26 0.53,1.88c0.38,1.21 0.6,1.79 0.84,2.36c0.7,1.68 0.99,2.2 1.27,2.73c0.54,1.06 0.83,1.57 1.09,2.11c0.81,1.6 1.04,2.17 1.27,2.73c0.46,1.14 0.67,1.72 0.87,2.29c0.41,1.14 0.81,2.26 1.01,2.8c0.4,1.07 0.6,1.59 1.04,2.61c0.22,0.51 0.43,1.02 1.19,2.51c0.26,0.5 0.81,1.51 1.1,2.02c0.29,0.52 0.89,1.56 1.48,2.65c0.3,0.55 0.6,1.12 1.2,2.26c0.3,0.57 0.6,1.15 0.9,1.72c0.89,1.69 1.2,2.23 1.5,2.77c0.6,1.05 0.91,1.55 1.23,2.04c0.64,0.97 1.32,1.89 2.05,2.76c0.37,0.44 0.75,0.86 1.53,1.71c0.39,0.43 0.8,0.85 1.99,2.2c0.4,0.46 0.8,0.93 1.6,1.86c0.4,0.46 0.77,0.94 2,2.19c0.39,0.4 1.2,1.13 1.61,1.47c0.82,0.69 1.25,1.01 2.56,2.03c0.46,0.35 0.92,0.72 1.88,1.47c0.49,0.39 1,0.78 1.51,1.17c1.6,1.21 2.16,1.6 2.72,1.99c0.57,0.4 1.16,0.79 1.75,1.16c0.6,0.38 1.19,0.78 3.13,1.71c0.65,0.31 1.32,0.57 1.99,0.82c0.68,0.25 1.36,0.49 2.05,0.72c0.69,0.24 1.4,0.45 2.79,0.95c1.41,0.5 2.11,0.79 2.82,1.06c0.72,0.28 1.45,0.55 2.19,0.82c0.75,0.27 2.32,0.79 3.13,1.03c0.83,0.24 1.67,0.47 2.54,0.68c0.88,0.21 1.77,0.41 2.68,0.58c0.92,0.18 2.8,0.5 3.76,0.64c0.96,0.14 1.94,0.27 2.91,0.39c0.98,0.12 1.97,0.23 2.97,0.33c1,0.1 3,0.3 4,0.4c1,0.1 2,0.2 3,0.3c1,0.1 2,0.2 3,0.3c1,0.1 3,0.3 4,0.4c1,0.1 2,0.2 3,0.29c1,0.09 2,0.18 3,0.25c1,0.08 3,0.19 4,0.24c1,0.04 2,0.07 2.99,0.09c0.99,0.02 1.97,0.03 2.95,0.03c0.97,0 2.89,0 3.84,0c0.93,0 1.86,0 2.76,0c0.89,0 1.77,0 2.64,0c0.85,0 2.49,0 3.28,0c0.77,0 1.52,0 2.24,0.01c0.7,0.01 1.37,0.02 2.02,0.05c0.62,0.02 1.78,0.1 2.32,0.16c0.51,0.06 0.99,0.13 1.45,0.2c0.44,0.07 0.85,0.15 1.25,0.22c0.38,0.07 1.1,0.19 1.45,0.23c0.33,0.04 0.65,0.07 0.95,0.1c0.28,0.03 0.55,0.05 0.79,0.08l0.22,0.03" fill="none" id="svg_3"/>
 </g>
</svg>