<?xml version="1.0"?>
<svg width="500" height="500" xmlns="http://www.w3.org/2000/svg" xmlns:svg="http://www.w3.org/2000/svg">
 <g class="layer">
  <title>Layer 1</title>
  <path d="m395.25,1l-290.5,0c-57.27,0 -103.75,46.48 -103.75,103.75l0,290.5c0,57.27 46.48,103.75 103.75,103.75l290.5,0c57.27,0 103.75,-46.48 103.75,-103.75l0,-290.5c0,-57.27 -46.48,-103.75 -103.75,-103.75zm-228.25,394.25l-62.25,0l0,-228.25l62.25,0l0,228.25zm-31.12,-254.6c-20.13,0 -36.31,-16.39 -36.31,-36.52s16.18,-36.73 36.31,-36.73s36.31,16.39 36.31,36.73s-16.18,36.52 -36.31,36.52zm280.12,254.6l-62.25,0l0,-116.2c0,-69.93 -83,-64.74 -83,0l0,116.2l-62.25,0l0,-228.25l62.25,0l0,36.73c29.05,-53.74 145.25,-57.68 145.25,51.25l0,140.27z" fill="#0a3871" id="svg_1"/>
 </g>
</svg>