<?xml version="1.0"?>
<svg width="500" height="500" xmlns="http://www.w3.org/2000/svg" xmlns:svg="http://www.w3.org/2000/svg">
 <g class="layer">
  <title>Layer 1</title>
  <path d="m395.25,1l-290.5,0c-57.27,0 -103.75,46.48 -103.75,103.75l0,290.5c0,57.27 46.48,103.75 103.75,103.75l290.5,0c57.27,0 103.75,-46.48 103.75,-103.75l0,-290.5c0,-57.27 -46.48,-103.75 -103.75,-103.75zm-2.9,191.73c4.36,95.66 -67.02,202.52 -193.6,202.52c-38.39,0 -74.28,-11.2 -104.37,-30.5c36.1,4.15 72.21,-5.81 100.84,-28.22c-29.88,-0.62 -54.99,-20.33 -63.7,-47.31c10.79,2.07 21.16,1.45 30.92,-1.24c-32.78,-6.64 -55.4,-36.1 -54.78,-67.64c9.13,5.19 19.71,8.3 30.92,8.51c-30.29,-20.13 -39.01,-60.17 -21.16,-90.88c33.61,41.29 83.83,68.27 140.48,71.17c-9.96,-42.54 22.41,-83.62 66.4,-83.62c19.5,0 37.14,8.3 49.59,21.58c15.56,-3.11 30.09,-8.71 43.37,-16.6c-5.19,15.98 -15.98,29.26 -30.09,37.76c13.9,-1.66 26.97,-5.39 39.22,-10.79c-9.13,13.69 -20.75,25.52 -34.03,35.27z" fill="#0a3871" id="svg_1"/>
 </g>
</svg>